<svg width="366" height="385" viewBox="0 0 366 385" fill="none" xmlns="http://www.w3.org/2000/svg">
<rect x="16" y="19" width="335" height="342" rx="20" fill="#515F51"/>
<path d="M47.5 8.5C22.5 3.5 44.5132 56.9999 18.5002 55.5002C-7.51288 54.0005 48.5008 130 12.9985 136.5C-20.5 147.5 29 214 9.48649 242C-0.5 252.5 30.5001 317 13.4983 348C1.62577 369.648 64.8902 331.15 98.3784 369C132.276 407.313 168.132 361.235 203 348C233.661 336.363 247.983 358.79 281.5 369C357 392 327 311 347.364 300.849C366.008 291.555 339.765 271.145 353.98 229.5C368.195 187.855 349.572 186.418 340.968 163.831C332.364 141.244 352.095 119.236 360.325 81.8257C368.555 44.4158 367.303 35.3045 344.832 35.3045C291.712 43.0688 280.555 1 229.68 1C178.804 1 185.164 24.9989 150 30.2927C114.836 35.5866 63.2732 11.6546 47.5 8.5Z" stroke="white" stroke-opacity="0.5" stroke-width="1.5"/>
</svg>
