<svg width="309" height="150" viewBox="0 0 309 150" fill="none" xmlns="http://www.w3.org/2000/svg">
<path d="M2.20649 146.572C1.33784 147.004 1.84455 147.651 2.20649 147.921H32.6091L32.8805 149H42.3812L42.9241 147.921C52.244 148.101 71.3723 148.46 73.3267 148.46C74.6297 147.597 73.6886 146.842 73.0553 146.572M2.20649 146.572C3.07513 146.14 23.1987 146.212 33.1519 146.302L33.6948 147.112H36.4093M2.20649 146.572C1.12074 143.982 0.57772 140.637 1.39205 141.446C4.01609 142.435 11.8666 143.723 18.4935 142.525C27.4514 140.906 36.1379 145.223 36.4093 147.112M73.0553 146.572L42.9241 146.302L42.3812 147.112H38.038M73.0553 146.572C73.0553 145.763 73.0553 143.82 73.0553 142.525C70.425 143.294 66.913 143.449 63.8259 143.391M63.8259 143.391C61.4967 143.347 59.4095 143.181 58.1254 143.065C55.1395 142.795 48.6246 141.986 45.9101 141.986C43.7385 141.986 40.1191 145.583 38.5809 147.112C39.7572 145.403 42.707 141.284 45.0958 140.637C48.0817 139.827 53.2393 140.367 59.4827 141.446C64.4774 142.309 70.2503 140.187 72.5124 139.018C71.3361 140.135 67.952 142.573 63.8259 143.391ZM38.038 147.112C37.9165 146.232 37.8076 145.127 37.7386 143.874M38.038 147.112H37.2237M37.6825 142.525C37.5349 137.318 38.1242 130.281 41.024 125.798C45.0958 121.212 51.3391 121.482 55.1395 114.467C54.074 117.525 50.7366 124.072 45.9101 125.798C40.2096 129.036 37.4277 138.748 37.6825 142.525ZM37.6825 142.525C37.6957 142.99 37.7148 143.441 37.7386 143.874M37.6825 142.525C38.9168 141.213 41.1263 139.335 43.4847 137.939M37.7386 143.874C43.9541 136.59 50.2533 137.669 58.1254 137.399C64.4231 137.183 68.1691 133.172 69.2549 131.194C65.1832 137.129 54.0537 136.05 48.8961 136.05C47.2647 136.05 45.3292 136.847 43.4847 137.939M43.4847 137.939C44.3837 134.791 48.136 127.956 55.9538 125.798C65.7261 123.1 72.7838 119.593 74.4125 112.039C75.4983 115.546 79.8415 116.895 81.1988 117.435M43.4847 137.939C47.3028 128.766 60.0256 128.226 65.4546 127.147C68.5514 126.532 73.5029 126.004 77.9414 124.412M81.1988 117.435C82.5561 117.974 83.099 110.15 81.1988 106.913C84.4562 109.611 90.1567 111.769 86.0849 118.514C84.3357 121.411 81.2841 123.213 77.9414 124.412M81.1988 117.435C81.2893 118.399 80.7645 121.145 77.9414 124.412M36.4093 147.112C36.3188 145.763 33.5319 142.741 23.1082 141.446C10.35 142.947 5.73541 139.288 2.20649 136.859C6.00675 137.939 2.89891 141.176 25.2798 139.557C27.3118 140.062 29.5221 140.862 31.4658 141.986M36.4093 147.112H37.2237M36.4093 147.112C35.5426 144.958 33.6766 143.263 31.4658 141.986M37.2237 147.112C36.4093 141.176 33.6948 137.399 34.5092 125.798C35.3235 114.197 38.038 112.578 38.5809 107.722C32.609 117.974 30.9803 123.37 31.2517 132.003C31.311 133.887 31.6406 135.706 32.1273 137.399M37.2237 147.112C36.4995 146.289 35.4915 144.902 34.5092 143.118M34.5092 143.118C29.985 139.323 19.7965 128.55 15.2361 115.816C19.1677 121.931 28.0502 134.809 32.1273 137.399M34.5092 143.118C33.6167 141.498 32.7454 139.55 32.1273 137.399M34.5092 143.118C32.5185 141.572 27.94 138.047 25.5513 136.32C22.5653 134.162 19.8508 133.622 12.2501 133.622C6.16962 133.622 3.92562 130.744 3.56369 129.305C3.65417 129.665 3.99801 130.708 4.64949 132.003C8.99272 137.399 14.4217 136.05 20.9366 136.859C26.1485 137.507 30.1277 140.547 31.4658 141.986M145.603 65.5925C140.38 73.0517 135.529 81.4749 132.682 86.9058C140.934 81.7258 148.426 82.9489 151.141 84.2079M145.603 65.5925C150.672 58.3531 156.092 52.0216 160.37 50.2145C159.835 51.4116 159.492 52.8614 159.284 54.3761M145.603 65.5925C152.683 60.8442 157.674 62.1751 159.284 63.4342C159.034 61.5054 158.818 57.7772 159.284 54.3761M159.284 54.3761C160.823 56.3163 166.288 59.8729 175.843 58.5779C166.342 60.4665 162.813 64.5133 159.284 70.9882C158.36 79.2549 158.695 84.3944 154.731 86.9058M151.141 84.2079C150.272 88.0929 148.607 88.7044 147.883 88.5245C148.607 88.5245 150.489 88.4166 152.227 87.9849C153.213 87.7038 154.037 87.345 154.731 86.9058M151.141 84.2079C153.095 83.1287 154.348 85.5568 154.731 86.9058M268.826 11.4054C272.627 10.3262 272.084 9.78662 274.527 7.35852C279.684 13.8335 288.099 17.0709 296.514 15.1824C288.465 19.5697 293.083 17.7852 279.956 19.7473M268.826 11.4054C273.17 15.9918 277.784 19.1863 279.956 19.7473M268.826 11.4054C266.655 8.61754 262.149 2.6642 261.497 1.15338C260.14 2.77211 254.168 8.43767 244.939 4.39084C248.468 10.596 260.031 22.4127 278.056 20.0386C278.728 19.9332 279.36 19.8364 279.956 19.7473M370.156 30.1419C379.114 12.0661 375.585 0.734924 376.128 1.00471C376.671 1.2745 382.1 6.67028 384 13.1452C380.511 23.6935 372.528 32.4118 365.541 38.1829M370.156 30.1419C367.441 35.5377 368.527 35.1625 365.541 38.1829M370.156 30.1419C369.885 31.0412 367.822 32.7859 361.741 32.57C361.741 34.4586 357.543 20.3763 352.114 24.1534C354.417 22.8753 362.092 41.0319 365.541 38.1829" stroke="white" stroke-opacity="0.3"/>
</svg>
