<svg width="296" height="124" viewBox="0 0 296 124" fill="none" xmlns="http://www.w3.org/2000/svg">
<path d="M21.9383 107.736C23.8629 105.133 29.2517 101.348 35.4102 107.026M35.4102 107.026C34.1272 114.833 23.8629 117.672 21.2968 117.672C18.7307 117.672 11.0325 115.542 3.33425 107.026C0.126654 101.349 0.768174 92.1224 2.05121 89.2835C3.33425 86.4447 5.90036 80.767 12.3156 78.6378C18.7308 76.5087 23.2214 76.5087 27.0705 81.4767C25.146 77.9281 23.2214 75.0893 22.5799 70.1213C21.9383 65.1533 22.1257 58.1508 25.7875 51.6687C28.9951 45.9906 41.1839 43.1521 43.75 43.8619M35.4102 107.026C43.75 113.413 55.9389 116.962 64.9202 116.252C72.1052 115.685 76.5025 110.811 77.803 108.445M43.75 43.8619C44.0956 45.0088 44.7391 46.9383 45.4999 48.8294M43.75 43.8619C43.3223 40.7863 43.2368 33.2157 46.3161 27.538C50.1652 20.4408 55.9389 15.4728 58.505 14.0534C61.0711 12.634 77.1091 10.5048 83.5243 17.602C73.2599 9.08602 93.147 2.6986 93.7886 2.6986C94.4301 2.6986 105.336 -1.55969 118.166 3.40831C128.431 7.38271 132.28 13.1074 132.921 15.4729M64.2787 43.8619C69.4108 45.9905 69.345 51.8139 68.1278 54.5071C66.8447 57.346 62.739 59.4751 59.1465 59.4751C54.6559 59.4751 49.5237 55.9265 47.5991 53.0877C46.8889 52.04 46.1514 50.4488 45.4999 48.8294M34.1272 54.5071C35.2938 51.9048 39.2015 47.1261 45.4999 48.8294M57.2219 70.1213C63.2095 71.304 75.826 70.4047 78.3921 57.346M132.921 15.4729C131.407 16.274 129.354 17.5369 127.148 19.1663M132.921 15.4729C139.55 14.1501 153.687 13.7013 159.865 19.1663C166.922 25.4089 168.846 26.1186 173.337 34.6352C174.096 36.9871 175.33 41.6532 175.798 45.9906M114.317 60.8946C113.034 55.9266 111.238 43.7195 114.317 34.6352C116.449 28.3473 122.186 22.8302 127.148 19.1663M118.808 11.2146C120.946 11.5478 125.608 13.6045 127.148 19.1663M143.186 45.9906C140.833 47.41 136.001 51.3844 135.487 55.9266C134.846 61.6043 136.129 66.5723 137.412 67.9917C138.695 69.4112 143.827 77.218 150.884 77.218C157.941 77.218 161.79 75.0889 166.922 71.5403C171.187 68.5915 174.122 60.7416 175.361 54.5072M130.355 26.1186C136.984 21.3872 152.808 17.0343 163.073 37.474M175.361 54.5072C175.613 53.2392 175.795 52.0381 175.903 50.9586C176.052 49.4773 175.989 47.7613 175.798 45.9906M175.361 54.5072C177.68 53.0877 183.601 51.3844 188.734 55.9266M175.798 45.9906C178.827 45.2809 186.937 44.7131 195.149 48.1197C205.413 52.378 207.338 67.282 207.979 70.8306M207.979 70.8306C206.439 73.1017 203.488 73.6694 202.205 73.6694M207.979 70.8306C213.539 70.594 225.3 72.9597 227.866 84.3152M227.866 84.3152C226.84 87.7218 224.017 88.5734 222.734 88.5734M227.866 84.3152C230.432 83.6054 236.719 82.6118 241.338 84.3152C247.112 86.4443 252.244 92.8317 259.301 95.6706C266.357 98.5094 281.754 101.348 295.867 100.639C289.452 101.348 251.602 105.607 247.753 102.058C242.621 99.9289 225.942 113.413 224.017 113.413C222.093 113.413 207.979 116.962 200.922 109.155C200.922 107.975 201.148 106.767 201.5 105.607M204.771 99.2192C203.869 100.384 202.333 102.858 201.5 105.607M201.5 105.607C201.307 106.08 199.383 108.303 193.224 113.413C188.092 117.672 181.035 116.962 168.846 116.962C165.211 116.725 155.759 114.123 147.035 105.607M147.035 105.607C142.416 103.335 136.984 103.241 134.846 103.477M147.035 105.607C145.11 109.628 139.08 118.381 130.355 121.22C121.631 124.059 108.757 122.876 103.411 121.93C97.7838 120.798 86.3628 116.687 77.803 108.445M71.9769 101.348C73.6399 103.993 75.6292 106.352 77.803 108.445" stroke="#D9E4D9" stroke-opacity="0.7" stroke-width="2" stroke-linecap="round"/>
</svg>
