<svg width="375" height="317" viewBox="0 0 375 317" fill="none" xmlns="http://www.w3.org/2000/svg">
<path d="M513.746 197.972C505.011 193.943 502.39 189.913 498.022 184.875C492.497 178.503 487.539 171.778 483.171 170.77C478.804 169.763 477.93 172.785 476.183 181.853C474.785 189.107 478.512 207.04 480.551 215.1C480.551 218.794 479.677 225.981 476.183 225.175C471.815 224.167 472.689 217.115 470.068 210.062C455.217 207.04 448.229 218.122 443.861 220.137C439.493 222.152 437.746 220.137 431.631 220.137C425.516 220.137 422.022 224.167 414.16 227.19C402.803 224.165 381.838 208.047 374.849 202.002C367.861 195.958 368.734 191.928 363.493 185.883C358.251 179.838 357.378 180.845 346.021 169.763C334.665 158.68 327.677 134.5 328.55 136.515C329.424 138.53 350.389 157.673 366.114 167.748C381.838 177.823 387.953 184.875 394.068 192.935C400.183 200.995 408.045 204.017 412.412 202.002C415.907 203.01 426.39 192.935 439.493 192.935C443.861 188.905 455.217 181.853 455.217 174.8C439.493 168.755 395.815 134.5 380.091 120.396C364.366 109.313 355.631 86.1408 352.136 81.1034C346.895 77.0734 333.792 69.0134 322.435 66.9985C311.079 64.9835 302.343 45.8411 296.228 45.8411C290.113 45.8411 283.125 52.8936 273.516 57.931C263.906 62.9685 256.044 63.976 244.688 66.9985C233.331 73.043 233.331 77.0734 226.343 85.1333C220.752 91.5813 208.872 96.5516 203.63 98.2307C183.538 113.343 176.55 120.396 167.814 127.451C160.826 136.518 214.987 104.276 221.975 102.261C238.573 115.358 248.182 112.336 256.044 111.328C263.906 110.321 307.585 62.9689 309.332 60.9539C311.079 58.939 318.067 70.0214 315.447 76.0663C312.826 82.1113 300.596 97.2237 298.849 101.254C297.102 105.284 297.102 122.411 297.102 129.463C294.481 144.576 289.24 144.576 282.251 148.606C276.66 151.83 270.021 159.352 267.401 162.711C262.509 171.577 256.044 177.823 248.182 180.846C237 186.488 219.354 184.876 221.102 182.863C232.283 176.415 267.401 140.548 267.401 127.451C268.274 125.433 245.561 140.546 233.331 141.555C220.856 142.585 207.998 148.608 203.63 151.63C199.262 154.653 184.412 169.765 173.929 174.803C163.446 177.825 156.458 179.84 159.078 175.81C164.32 173.795 192.274 135.511 191.4 135.511C190.701 135.511 189.362 136.182 188.78 136.518L165.193 150.623C157.331 153.981 141.083 160.899 138.986 161.705C136.89 162.511 115.4 176.818 104.917 183.87C101.132 188.236 90.5908 198.781 78.7103 206.035C66.8298 213.289 42.8941 225.177 32.4113 230.215C27.1699 232.901 17.386 239.282 20.1814 243.312C23.6757 248.35 83.0781 241.297 104.917 240.29C122.389 239.484 120.933 246.671 118.021 250.365C109.285 258.089 93.9104 274.343 102.297 277.567C107.538 278.574 163.446 264.47 196.642 247.342C223.198 233.64 254.297 224.842 266.527 222.155L311.952 229.207C329.424 229.543 366.987 230.215 377.47 230.215C384.458 235.051 402.512 247.006 410.665 252.38C421.731 252.715 445.783 254.193 453.47 257.417C463.079 261.447 521.608 300.739 530.344 303.762C539.08 306.784 570.528 306.784 585.379 306.784C574.197 318.874 527.141 316.523 505.011 313.837C490.742 309.135 448.928 295.097 395.815 276.559C329.424 255.402 313.7 256.409 285.745 256.409C257.791 258.424 233.331 266.484 224.596 269.507C215.86 272.529 155.584 301.747 145.975 303.762C136.366 305.777 117.147 307.791 94.4345 303.762C80.4574 296.508 22.8021 285.291 -4.27844 280.589C-25.8264 280.589 -69.9706 280.992 -74.1637 282.604C-97.7069 286.1 -148.435 295.224 -163 303.762M513.746 198.98C516.949 200.995 525.277 207.241 532.965 216.107C542.574 227.19 549.562 229.205 556.551 235.25C563.539 241.295 568.781 249.355 576.643 253.385C584.505 257.415 602.85 274.542 620.321 276.557C615.08 271.519 604.597 261.445 602.85 258.422C601.103 255.4 585.379 243.31 582.758 242.302C580.137 241.295 562.666 225.175 554.804 212.077C548.514 201.599 530.053 187.562 521.608 181.853C503.555 170.099 466.748 146.187 463.953 144.575C460.459 142.56 414.16 125.433 392.321 93.1933C392.321 87.1483 388.826 88.1558 409.792 80.0959C416.78 77.0734 420.275 74.0509 423.769 73.0434C427.263 72.0359 444.734 74.0509 446.482 73.0434C448.229 72.0359 461.332 57.931 466.574 58.9385C471.815 59.946 470.941 57.931 474.436 58.9385C477.93 63.976 491.907 82.1108 505.011 82.1108C502.39 76.0659 501.516 65.991 489.286 56.9235C477.93 52.8936 466.574 44.9971 466.574 41.8111C466.574 32.7437 489.286 20.6538 499.769 2.51893C500.06 1.17561 502.565 -0.503543 510.252 3.52643C520.735 11.5865 521.608 13.6015 525.103 12.594C528.597 11.5865 529.47 9.57156 533.838 9.57156C538.206 9.57156 549.562 23.6765 550.436 25.6914C551.31 27.7064 576.643 53.9012 578.39 54.9087C580.137 55.9162 626.436 95.2084 635.172 104.276C643.908 113.343 685.839 149.613 696.321 157.673C706.804 165.733 719.399 178.873 742 173.78C742 173.78 742 229.414 742 242.302C714.046 240.287 707.678 214.092 702.436 212.077C697.195 210.063 697.195 184.954 605.471 180.845C583.107 180.845 572.857 176.815 570.528 174.8C576.352 182.189 590.795 197.368 601.976 198.98C598.482 207.04 571.401 206.033 569.654 205.025C567.907 204.018 584.505 219.13 593.241 236.257C604.597 249.355 624.689 264.467 632.551 267.49C640.413 269.505 651.77 265.475 666.62 268.497C681.471 271.52 696.321 272.527 712.046 270.512C727.77 268.497 727.149 271.52 742 268.497" stroke="#D9E4D9" stroke-opacity="0.44" stroke-width="2"/>
</svg>
