<svg width="83" height="98" viewBox="0 0 83 98" fill="none" xmlns="http://www.w3.org/2000/svg">
<path d="M0.884766 39.4002C1.22607 41.0944 2.76196 45.1715 6.17503 47.926C10.2358 51.2032 14.0647 56.4114 16.4844 61.2886M16.4844 61.2886C16.6069 61.5354 16.7258 61.7815 16.8409 62.0264C19.23 67.1091 18.2914 73.1755 18.1208 73.5034C17.9501 73.8313 14.1654 71.4539 16.4844 61.2886ZM16.4844 61.2886C17.5987 58.6652 19.8358 52.7833 20.7659 50.5493C22.3515 46.7408 22.5376 43.9231 21.5293 39.4002M21.5293 39.4002C21.4524 39.0553 21.3686 38.7004 21.2779 38.3345C20.7375 37.0228 19.8444 33.6453 20.5953 30.6285C21.3461 27.6116 25.6296 26.6935 27.6774 26.6115C29.1564 26.5295 32.4045 26.7427 33.5649 28.2511C33.9063 29.8907 32.0575 32.4867 31.0905 33.5797C30.0665 34.8367 27.8651 37.4491 27.2508 37.8426C26.4828 38.3345 24.4259 40.056 21.5293 39.4002ZM21.5293 39.4002C19.483 38.9083 14.7077 37.4327 11.9773 35.4652C8.56418 33.0059 7.61774 33.1632 7.79624 31.4483C7.96689 29.8087 9.5881 29.9726 10.4414 29.1528C11.0387 28.743 12.2503 27.6444 12.3186 26.5295M12.3186 26.5295C12.8305 26.6662 14.1104 26.9558 15.1343 27.0214M12.3186 26.5295C12.0626 26.3656 11.6701 25.9721 12.1479 25.7097C12.7452 25.3818 13.0012 25.4638 13.3425 25.4638C13.6838 25.4638 14.3664 25.7917 14.6224 25.8737M15.1343 27.0214C15.049 26.5295 14.793 26.1197 14.6224 25.8737M15.1343 27.0214C14.8784 25.7097 15.2197 22.1847 14.9637 22.1027M14.6224 25.8737C14.3948 25.2725 13.9398 23.9062 13.9398 23.2504C14.0251 22.5126 14.7077 22.0207 14.9637 22.1027M14.9637 22.1027C15.0775 22.1847 15.3391 22.3486 15.4757 22.3486C15.6463 22.3486 16.4996 21.7748 16.7556 21.2009C16.9603 20.7418 16.6702 19.9166 16.4996 19.5613C16.3858 18.5776 16.3801 16.6265 17.2675 16.6921C18.3768 16.774 23.8377 17.1019 25.4589 16.3641C26.0581 16.0443 26.8652 15.5248 27.6774 14.976M64.7092 26.3655C64.4533 25.7097 63.856 23.6602 62.4054 20.9549C60.9549 18.2496 57.4565 15.1344 54.1287 12.921C50.801 10.7076 46.4493 9.96979 43.2922 9.72385C40.1351 9.47792 36.722 10.4617 35.9541 10.6256C35.1862 10.7896 31.6024 12.2652 30.7492 12.839C30.2288 13.189 28.9469 14.1182 27.6774 14.976M22.6431 0.296265C22.0743 0.870116 20.9024 2.57528 20.7659 4.8051C20.5953 7.59238 21.4485 9.64185 22.3871 11.1175C23.3257 12.5931 26.2268 14.4076 27.6774 14.976M27.6774 14.976C28.1325 15.1108 29.2133 15.4787 29.8959 15.8722C30.7492 16.3641 32.3704 17.7578 32.9677 18.7415C33.2236 19.2334 32.1144 14.9705 30.4932 14.4786C29.1962 14.0851 28.3031 16.0089 28.0187 17.0199C27.9618 17.2659 27.302 18.1513 25.1176 19.7252C25.3736 20.1351 29.128 21.4468 30.8345 21.8567C32.541 22.2666 38.2579 22.6765 40.5617 20.9549C42.8656 19.2334 44.4015 17.8397 45.2547 14.7245C45.9373 12.2324 45.596 9.20463 45.3401 8.00227C44.5152 5.98013 42.2512 1.60793 39.7938 0.296265C38.0019 1.19803 38.5139 5.21499 38.5139 5.87083C38.5139 6.39549 39.2534 10.0791 39.6232 11.8553C39.8507 13.1669 40.3228 16.0854 40.3911 17.2659C40.4764 18.7415 40.4764 21.7747 40.4764 22.3486C40.4764 22.9224 40.3911 27.2673 39.7085 29.3988C39.0259 31.5302 37.4047 36.203 36.5514 37.3507C35.6981 38.4984 34.4182 41.4496 32.6264 43.5811C30.8345 45.7125 28.36 50.3853 27.0801 53.7465C25.8002 57.1076 25.5442 60.0588 25.4589 64.1578C25.3736 68.2567 26.3975 71.208 26.8241 72.6016C27.2508 73.9952 27.6503 75.6264 29.8959 79.0784C31.4887 81.5268 31.1524 81.0912 32.413 82.7898C33.2805 83.9587 35.8773 88.9054 36.0821 89.43C36.3381 90.0859 38.7272 94.8406 38.8979 95.5785C39.0685 96.3163 39.0401 96.7404 37.874 96.9728C36.0821 97.3007 32.669 94.5954 30.7918 92.464C28.9146 90.3325 25.2456 85.9869 24.6483 82.1339C24.051 78.2809 25.8002 80.0617 28.7866 76.0447C31.7731 72.0277 36.1248 68.8306 38.5992 67.4369C41.0737 66.0433 47.2172 62.1903 47.9852 61.2885C48.7531 60.3868 54.2994 56.6977 55.3233 52.1069C55.949 50.7132 57.1664 46.8111 57.0298 42.3514C56.8592 36.7768 55.238 33.0878 53.1901 31.6122C51.1423 30.1366 46.62 36.6949 44.3161 40.7938C42.0123 44.8928 40.6471 51.697 40.5617 52.8447C40.4764 53.9924 40.5617 56.1239 44.5721 55.3041C48.1558 53.9924 55.7499 49.2376 58.0538 47.68C60.3576 46.1224 67.0984 40.9578 68.9756 39.0723C70.8528 37.1867 78.6175 28.9889 79.9828 25.7097C81.348 22.4305 81.7746 22.2666 82.1159 18.4956" stroke="white" stroke-width="0.483519"/>
</svg>
