<svg width="99" height="91" viewBox="0 0 99 91" fill="none" xmlns="http://www.w3.org/2000/svg">
<path d="M44.8647 37.6677C44.5793 37.2484 46.432 34.6817 45.0052 33.3915C41.2955 30.0372 37.3005 25.9841 25.7434 22.7695C14.1863 19.5549 8.62174 20.6731 7.76566 20.8128C6.90958 20.9526 5.62545 23.1888 4.76937 26.5431C4.34133 28.9191 4.31402 30.0065 3.62793 31.5746C2.77182 33.5313 2.62917 39.8207 2.77185 40.24C2.86697 40.7058 3.34258 41.6655 4.48402 41.7774C5.91082 41.9171 7.33762 42.7557 8.05103 43.5943C8.76443 44.4329 11.4754 47.6474 11.9034 48.486C12.3314 49.3246 10.4766 45.8305 8.19371 45.2714C5.91082 44.7124 3.48524 44.9919 2.77185 44.7124C2.05846 44.4328 1.91577 42.8955 2.77185 42.0569C3.62793 41.9171 3.62798 45.6907 3.77066 45.9702C3.91334 46.2498 4.34138 49.4643 4.9121 50.4427C5.48282 51.421 6.90962 52.1198 7.90838 52.2596C8.90714 52.3994 10.6193 51.9801 11.6181 51.421C12.6168 50.862 11.9034 49.3246 10.6193 48.7655C9.33519 48.2065 7.0523 47.9269 5.34014 49.1848C3.62798 50.4427 2.91458 50.4427 2.05849 50.3029C1.20241 50.1631 0.917052 49.6041 1.34509 49.3246C1.77313 49.045 3.0572 49.1848 3.62792 49.1848C4.19865 49.1848 4.62679 49.3246 4.9121 51.0017C4.9121 52.8187 4.76937 59.2477 4.48401 62.043C4.19865 64.8382 6.76689 70.149 7.05225 70.8478C7.33761 71.5466 10.1912 77.4165 11.3327 79.2334C12.4741 81.0503 13.6155 86.6409 13.7582 86.9204C13.9009 87.1999 14.757 90.1349 21.0349 89.9952C27.3128 89.8554 35.0176 87.759 36.159 87.1999C37.3005 86.6409 43.5784 84.1251 46.432 81.0503C49.7136 77.9755 53.994 72.9443 54.9928 70.5683C55.9916 68.1923 57.2757 63.7201 54.9928 60.9249C52.7099 58.1296 48.5722 56.8718 45.5759 56.732C42.5796 56.5922 37.3005 57.1513 33.4481 60.6454C29.5957 64.1394 28.0262 68.7513 28.4543 72.2453C28.8823 75.7394 29.7384 77.2767 31.8786 78.3948C34.0188 78.8141 38.5846 77.8358 41.7235 75.8791C44.8625 73.9224 49.2856 70.2889 49.8563 65.3972C50.427 60.5055 47.0027 55.8934 45.8613 54.7753C44.7198 53.6572 42.2943 51.421 37.5858 50.3029C34.8749 50.3029 32.4493 51.2813 31.4506 51.7006C30.4518 52.1198 24.3166 52.2596 23.3178 51.2812C22.319 50.3029 23.0324 49.6041 23.7458 49.045C24.1587 48.7215 24.906 48.398 25.6007 48.1828M44.8647 37.6677C44.73 34.064 45.297 31.5627 45.7229 29.338C46.6527 24.4813 49.718 19.9739 50.7167 18.4365C51.5728 16.6196 56.9946 11.0291 59.8483 8.37355C62.7019 5.71805 69.4078 2.08421 71.4054 1.52516C73.4029 0.966107 79.3954 -0.431523 84.2466 1.66492C89.0977 3.76137 90.0965 7.39521 90.3818 8.09403C90.6672 8.79285 92.8074 12.846 93.2354 14.2436C93.6635 15.6412 94.6622 17.3184 95.2619 18.5763C95.5134 19.5826 96.1084 20.4864 96.3744 20.8125M44.8647 37.6677C44.8654 37.6864 46.7511 35.3435 46.7518 35.3622C46.9896 36.9928 45.6658 42.7273 46.0082 43.1746C46.4648 42.8392 49.4325 40.3327 50.8593 39.1215C49.7044 38.6143 47.142 37.7412 44.8647 37.6677ZM44.8647 37.6677C44.4225 37.6534 43.991 37.6693 43.5827 37.7238C40.4437 38.2829 39.7303 39.8203 39.3023 40.6588C38.8742 41.4974 40.227 44.9286 41.1571 45.9698C42.1559 47.088 45.1522 49.8832 46.151 50.3025C47.007 50.815 49.1757 51.8119 51.002 51.7001C52.0417 51.7001 52.963 51.6422 53.7389 51.4206M25.6007 48.1828C26.1064 48.0262 26.5842 47.9269 26.8848 47.9269C27.5982 47.9269 29.025 48.2065 30.7372 48.7655C32.4493 49.3246 32.592 50.1631 33.4481 50.0234C34.3042 49.8836 33.3054 48.0667 32.8774 47.9269C32.4493 47.5076 31.1652 46.6691 29.1677 46.6691C27.3128 46.9486 27.8836 47.7399 25.6007 48.1828ZM25.6007 48.1828C24.7446 48.4545 22.5473 48.8348 20.6069 48.1828C18.1813 47.3679 17.8959 46.2498 17.8959 45.6907C17.8959 45.1317 18.6093 43.734 21.891 42.1966C25.1726 40.6592 28.4543 41.0785 29.5957 41.0785C30.7372 41.0785 36.159 41.9171 38.0139 43.734C33.0201 42.6159 29.453 43.175 28.1689 43.3147C26.8848 43.4545 20.7496 44.9919 17.4679 47.6474C14.1863 50.3029 13.9009 50.862 13.7582 51.2812C13.6155 51.7005 12.3314 53.9367 11.0473 57.0115C9.76317 59.3875 7.90833 61.0646 7.76565 62.3225C7.62297 63.5803 7.76565 64.5586 9.04977 65.8165C10.0771 66.8227 12.1412 67.0743 13.0448 67.0743C13.3777 67.0277 14.1292 66.8787 14.4716 66.655C14.8997 66.3755 12.7595 66.096 12.4741 65.8165C12.1887 65.5369 12.4741 65.1176 13.4729 64.9779C14.4716 64.8381 16.0411 65.6767 16.1838 65.8165C16.3265 65.9562 17.0399 66.5153 18.6093 66.5153C19.8935 66.3755 20.6069 64.4188 20.6069 64.2791C20.6069 64.1393 20.6069 62.1827 19.7508 62.043C19.6081 63.4406 19.4654 65.9562 18.6093 67.7731C17.9245 69.2267 15.946 70.708 15.0423 71.2671M15.0423 71.2671C15.4228 71.2205 16.5833 71.1832 18.1813 71.4068C20.1788 71.6863 23.8885 74.0622 24.7446 74.9008C24.4592 75.7394 22.4617 76.7177 19.8935 77.5563C17.3252 78.3949 18.4667 78.3948 16.7545 78.6744C15.0423 78.9539 14.1863 78.5346 13.7582 78.3948C13.3302 78.2551 11.19 77.137 10.6193 74.9008C11.3327 74.4815 13.1875 74.4815 14.6143 74.9008C16.0411 75.3201 21.6056 75.3201 22.7471 75.3201C23.8885 75.3201 23.8885 74.4815 23.3178 74.202C22.7471 73.9224 21.1776 73.6429 18.8947 73.2237C16.6118 72.8044 14.1863 73.2236 13.0448 73.5032C11.9034 73.7827 11.3327 74.4815 10.6193 74.202C9.90585 73.9224 9.76317 72.9441 10.3339 72.1056C10.9046 71.267 11.9034 70.8478 12.3314 70.8478C12.7595 70.8478 13.9009 71.4068 14.0436 71.4068C14.1863 71.4068 14.4716 71.4069 15.0423 71.2671ZM97.3731 52.958C97.0878 57.5702 95.8037 61.7631 95.661 62.6017C95.5183 63.4402 94.9476 63.7198 91.6659 64.9776C87.8136 65.8162 76.8272 65.8162 71.548 64.1391C67.3247 62.7973 63.1299 60.7847 61.5604 59.9462C61.0342 59.2008 58.7331 56.4521 53.7389 51.4206M97.3731 52.958C96.9451 51.2809 96.089 51.1411 94.2342 51.4206C92.6647 52.1194 91.8086 52.5387 91.2379 52.958C90.6672 53.3773 88.6697 53.2375 87.3855 52.958C86.1014 52.6785 84.3893 52.1194 84.2466 50.7218C84.404 50.5676 84.6193 50.3945 84.8721 50.2121M97.3731 52.958C97.6585 49.8832 98.1151 43.1466 97.6585 40.7986C97.1382 38.1232 96.9737 36.0284 96.1922 33.8791M84.8721 50.2121C85.9941 49.4023 87.8546 48.4085 88.6697 48.0663C89.6684 47.647 92.2367 47.5072 92.522 47.647C92.8074 47.7868 94.2342 48.7651 94.2342 49.1844C94.2342 49.6037 92.094 49.7435 90.3818 49.7435H86.5295C86.1146 49.8959 85.448 50.1064 84.8721 50.2121ZM84.8721 50.2121C84.3917 50.3002 83.9743 50.3153 83.8185 50.1627C83.3905 49.7435 86.3868 46.2494 87.3855 45.6903C88.0989 44.9915 89.6684 43.8734 90.2391 43.8734C90.8098 43.8734 91.6659 44.5722 92.8074 44.4325M92.8074 44.4325C93.9488 44.2927 94.8049 44.2927 95.0903 44.4325C95.3756 44.5722 95.8037 45.5506 96.089 46.6687C96.3744 47.7868 96.3744 49.7435 96.2317 50.4423C96.089 51.1411 94.3769 49.3242 93.9488 48.3458C93.5208 47.3675 92.8074 46.6687 92.8074 44.4325ZM92.8074 44.4325C92.8074 44.0132 92.7503 43.0907 92.522 42.7553C92.2367 42.336 91.5233 41.7769 90.6672 41.6372C89.8111 41.4974 86.8148 41.4974 85.9587 41.2179C85.1027 40.9384 83.6346 40.9384 83.0639 39.96C82.4932 38.9817 84.2466 35.4716 85.6734 34.2137C85.6734 34.9125 85.388 39.401 85.6734 39.96C85.9588 40.5191 86.6721 41.0042 87.1002 41.2179C87.5282 41.4316 88.527 40.7986 88.6697 40.5191C88.8123 40.2396 88.527 39.1215 89.0977 38.4226C89.6684 37.7238 91.0952 37.8636 91.3806 37.8636C91.6659 37.8636 93.0927 37.8636 92.522 38.5624C91.6659 39.1215 90.9525 39.5407 90.8099 39.96C90.6672 40.3793 91.6659 40.6589 92.8074 40.3793C93.9488 40.0998 95.2329 38.9817 95.661 37.025C96.037 35.306 96.6334 35.2051 96.1922 33.8791M96.1922 33.8791C96.1312 33.6958 96.0503 33.4891 95.9464 33.2514M96.1922 33.8791C96.1163 33.6706 96.0347 33.4615 95.9464 33.2514M95.9464 33.2514C95.2615 32.2451 94.044 31.5277 93.5208 31.2947H95.9464C96.089 31.2947 96.9451 30.8754 97.3731 30.3164C96.5741 30.3164 95.7085 30.2232 95.3756 30.1766C95.3062 30.0746 95.2164 29.8235 95.2619 29.4778M96.2317 27.5211C95.9464 27.3813 95.661 28.3597 95.3756 29.0585C95.314 29.2094 95.2787 29.35 95.2619 29.4778M96.2317 27.5211C96.46 27.6329 96.422 28.5926 96.3744 29.0585C96.2035 29.1983 95.7417 29.4778 95.2619 29.4778M96.2317 27.5211V25.4247M95.2619 29.4778L91.5233 29.338C91.2379 29.2915 90.7813 28.9467 91.2379 27.9404C91.8086 26.6825 92.9501 25.5644 93.8062 25.5644C94.491 25.5644 95.7086 25.4713 96.2317 25.4247M96.2317 25.4247C96.3268 25.1917 96.6027 24.5022 96.9451 23.6077C97.3732 22.4896 97.0878 21.9306 96.3744 20.8125M96.3744 20.8125C95.9178 21.3715 94.7573 21.6045 94.2342 21.6511C93.283 21.9772 91.0382 23.1885 89.6684 25.4247C88.8694 24.5302 89.6209 22.1635 90.0965 21.092C90.3818 20.6261 91.295 19.6664 92.6647 19.5546C94.3769 19.4148 95.8037 20.2534 96.3744 20.8125ZM64.3676 31.8386C64.2853 31.8423 64.2057 31.8475 64.1286 31.8538C62.4165 31.9935 59.9909 34.5093 59.2775 35.9069C58.2787 37.3045 56.5666 41.777 56.2812 43.1746C55.9959 44.5722 55.9959 48.2061 55.8532 49.7435C55.387 50.6568 54.6669 51.1557 53.7389 51.4206M64.3676 31.8386C66.1134 31.76 69.0361 32.3346 73.2602 36.6057C77.6833 41.0781 78.8247 43.8734 79.6808 45.1313C80.5369 46.3891 82.249 50.3025 82.5344 52.958C82.8197 55.6135 82.3917 56.7316 80.8222 57.9895C79.2527 59.2474 73.8309 59.1076 71.8334 58.269L71.797 58.2538C69.7793 57.4068 65.112 55.4477 62.5592 51.1411C60.847 48.4856 60.7043 45.4108 60.7043 44.0132C60.7043 42.6155 60.8721 38.9201 61.4177 37.5841C61.8656 36.4872 62.665 34.0992 64.3676 31.8386ZM64.3676 31.8386C64.8345 31.2187 65.3693 30.6084 65.9835 30.0368C66.6643 29.62 68.4112 28.9197 70.4066 29.0972M70.4066 29.0972C70.6414 29.1181 70.8796 29.1512 71.12 29.1983C74.2589 29.1983 79.5381 27.9404 80.1088 27.8006C80.6796 27.6609 80.5369 28.779 77.3979 29.8971C74.2589 31.0152 70.1212 30.8754 69.8358 30.8754C69.5505 30.8754 70.2639 30.2541 70.4066 29.0972ZM70.4066 29.0972C70.1212 28.8048 69.2651 27.9404 68.1237 26.8223C67.553 25.9837 69.2651 24.3066 71.4053 23.6077C73.5455 22.9089 76.2565 23.1885 77.6833 24.027C78.4886 24.5004 78.9758 25.0182 79.2474 25.4549M79.2474 25.4549C79.4569 25.7919 79.5381 26.0806 79.5381 26.2632C79.5381 26.6825 78.1113 26.5428 77.5406 26.2632C77.6993 25.9523 78.4319 25.771 79.2474 25.4549ZM79.2474 25.4549C79.8979 25.2028 80.6011 24.8647 81.1076 24.3066C81.9783 23.6432 82.7178 22.7871 83.1926 21.6511M83.1926 21.6511C83.4181 21.1116 83.584 20.5091 83.6758 19.8341C83.9612 17.7377 83.3905 17.7377 81.821 16.7593C79.5381 16.6196 73.8309 16.8991 71.12 17.7377C68.409 18.5763 65.2701 22.3499 63.8433 24.027C65.4128 22.6294 67.6956 20.9522 70.9773 19.9739C74.2589 18.9956 76.6845 19.5546 77.9686 19.8341C79.2527 20.1137 81.568 20.5329 83.1926 21.6511Z" stroke="white" stroke-width="0.386815"/>
</svg>
