<svg width="77" height="90" viewBox="0 0 77 90" fill="none" xmlns="http://www.w3.org/2000/svg">
<path d="M23.4068 90C23.2978 87.6809 22.6003 82.7556 20.6823 81.6071C19.0475 79.7297 14.7973 76.0854 13.9254 75.5332C13.0536 74.9811 8.14939 71.6681 7.71347 71.3368C7.27754 71.0055 5.86078 70.6742 4.66199 68.0238C4.40699 67.352 4.26387 66.5214 4.18899 65.8151M4.18899 65.8151C4.13586 65.314 4.11708 64.8754 4.11708 64.6003L4.18899 65.8151ZM4.18899 65.8151C3.54746 65.447 2.17721 64.2911 1.82847 62.6125C1.82847 61.9941 1.90113 59.7781 1.93746 58.7474M1.93746 58.7474C1.4652 57.7167 0.498901 55.5669 0.411716 55.2135C0.302734 54.7718 0.193753 52.5631 0.520697 51.3483C0.847641 50.1336 1.28357 46.931 1.28357 45.9371C1.39255 45.0536 1.61051 41.078 1.61051 40.7467C1.61051 40.4154 1.93746 36.8816 2.37338 36.1085C2.63494 35.4901 3.0636 33.7158 3.24523 32.906C3.6085 31.3967 4.35684 28.2457 4.44403 27.7156C4.55301 27.053 4.98893 24.8443 5.2069 24.2922C5.42486 23.74 6.07875 22.1939 6.18773 21.0896C6.29671 19.9853 6.73264 15.5679 6.73264 15.6784C6.73264 15.7888 6.84162 14.7949 7.16856 14.574C7.49551 14.3532 7.82245 14.9053 7.93143 15.2366M1.93746 58.7474C2.04644 58.3056 2.2862 57.2675 2.37338 56.6491C2.59134 55.8761 2.59134 50.5753 2.70032 49.1396C2.80931 47.704 3.13625 44.1702 3.24523 43.1763C3.24523 42.1824 3.35421 39.9737 3.57218 38.6485C3.79014 37.3233 4.55301 35.2251 4.77097 34.452C4.98893 33.679 5.42486 31.5807 5.53384 31.3599C5.64282 31.139 5.96977 29.3721 6.07875 28.8199C6.07875 28.3782 7.71347 22.8565 8.25838 21.0896C8.91226 19.3227 8.80328 19.8748 9.67513 18.3287M7.93143 15.2366C8.01862 15.5017 7.96776 17.703 7.93143 18.7705M7.93143 15.2366C8.47634 15.6047 9.58795 16.7385 9.67513 18.3287M9.67513 18.3287C9.96575 18.5496 10.547 19.1239 10.547 19.6539M10.547 19.6539C10.547 19.8974 10.5176 20.3793 10.4749 20.9791M10.547 19.6539C10.547 19.8306 10.499 20.611 10.4749 20.9791M10.22 24.513C10.289 23.3952 10.4015 22.0122 10.4749 20.9791M10.4749 20.9791C10.8986 21.5313 11.7676 23.1436 11.8548 25.1756C11.9637 27.7156 11.8548 29.8138 11.8548 30.0347C11.8548 30.2556 11.8548 30.366 11.6368 30.366M11.6368 30.366C11.4624 30.366 11.2009 30.1451 11.0919 30.0347M11.6368 30.366C12.1817 30.9181 13.2715 32.4421 13.2715 34.1207C13.2715 36.2189 13.2715 37.9859 13.2715 38.0963C13.2715 38.2068 12.8356 38.7589 12.7266 41.7406C12.6394 44.126 12.6176 44.9432 12.6176 45.0536C12.5086 46.342 12.2907 49.0955 12.2907 49.8023C12.2907 50.6857 12.2907 51.4587 12.2907 52.0109C12.2907 52.5631 12.6176 55.3239 13.2715 56.9804C13.9254 58.6369 17.0859 64.1586 17.4128 64.4899C17.7398 64.8212 23.0798 70.5637 23.6247 70.7846C23.9517 71.2263 27.6571 74.9811 27.984 75.0915C28.3109 75.4228 30.3816 77.0793 33.5421 77.8523M11.0919 30.0347C11.1645 30.6605 11.2881 32.2875 11.2009 33.7894M11.0919 30.0347C11.0919 29.6298 10.9175 28.7095 10.22 28.2678C9.02124 28.8199 8.47634 34.3416 8.36736 34.5625C8.25838 34.7833 8.36736 36.219 7.49551 39.4215C7.27754 42.7345 6.9506 45.164 6.73264 46.1579C6.51467 47.1518 5.96977 48.6979 5.7518 51.5692C5.7518 53.8662 5.7518 57.9743 5.7518 59.7413C5.78813 60.1094 5.7736 61.1106 5.42486 62.1708M33.5421 77.8523C36.8115 78.1836 40.4959 77.5695 40.7348 77.521C41.2797 77.4106 44.4402 76.6376 46.2929 75.4228M33.5421 77.8523C34.0143 78.2941 34.9806 79.4646 35.0678 80.6132M46.2929 75.4228C47.0194 74.5761 48.6687 72.684 49.4533 71.8889C50.4342 70.895 54.6844 66.809 54.6844 66.6986C54.6844 66.5881 57.8449 63.8273 57.518 62.6125C57.518 61.6186 57.191 59.2995 56.8641 58.0847C56.5371 56.87 55.5563 54.4405 53.9216 52.3422C52.2869 50.9066 49.5623 48.4771 49.1264 48.0353C48.6905 47.5936 46.2929 44.8328 45.857 44.1702C45.421 43.5076 44.5492 41.851 44.2222 39.7528M46.2929 75.4228C45.857 75.9013 44.8979 77.3664 44.5492 79.3984C44.2004 81.4304 44.1859 86.7974 44.2222 89.227M44.2222 39.7528C45.1813 41.078 46.1476 42.0719 46.5108 42.4032M44.2222 39.7528C44.0043 39.2743 43.6337 38.1847 43.8953 37.6546C44.1568 37.1245 45.1667 37.581 45.639 37.8754C46.2202 38.3908 47.5135 39.5982 48.0366 40.305C48.6905 41.1884 53.0497 44.8328 53.8126 45.2745C54.5755 45.7162 58.0629 48.3666 58.4988 48.5875C59.0437 48.8636 59.8066 49.5814 60.5694 52.0109C60.969 53.0784 61.899 55.3681 62.4221 55.9865M62.4221 55.9865C62.6401 56.87 64.0568 59.7412 64.2748 60.0725C64.4492 60.3376 65.5099 62.0972 66.0185 62.9438C66.3091 63.3119 66.8686 64.3132 66.7814 65.3734C66.6724 66.6986 66.4544 67.1403 66.2365 67.582C66.0185 68.0238 64.8197 68.6864 64.1658 69.4594C63.5119 70.2324 62.0952 72.1098 61.8772 72.4411M62.4221 55.9865C62.7127 55.0662 63.3812 53.049 63.7299 52.3422C63.8171 51.6354 63.7662 47.5568 63.7299 45.6058L63.8389 40.6363C63.3303 39.3847 62.226 36.749 61.8772 36.2189C61.4413 35.5563 60.7874 33.5686 60.4605 32.2434C60.1335 30.9182 59.5886 29.593 59.2617 29.0408C58.9347 28.4886 57.7359 25.9487 57.518 24.9548C57.3 23.9609 57.518 21.5313 57.9539 21.0896M57.9539 21.0896C58.0629 21.7522 58.3898 23.9608 60.2425 25.9486M57.9539 21.0896C58.0265 20.9055 58.3026 20.4491 58.8257 20.0957C59.3488 19.7423 60.2425 21.4209 60.7874 22.5252C61.078 23.2246 61.7464 24.7118 62.0952 25.0652C62.5311 25.5069 63.7299 27.3843 64.0568 27.9365C64.3838 28.4886 65.5826 30.8077 66.0185 31.4703C66.4544 32.1329 67.4353 34.1207 67.9802 35.0042M67.9802 35.0042C68.0892 34.5624 68.0892 32.1329 68.0892 31.912C68.0892 31.6912 67.5443 30.5868 67.2173 29.5929C66.8904 28.599 66.4544 27.6051 66.2365 26.7217C66.0185 25.8382 65.8005 25.0652 65.6916 24.4026C65.5826 23.74 65.4736 23.0774 65.2556 22.5252C65.0377 21.973 64.7107 20.7583 64.3838 20.0957C64.0568 19.4331 63.7299 18.7705 63.6209 18.1079C63.5119 17.4453 63.294 15.7888 64.0568 14.0218C64.58 13.3151 64.9287 12.9911 65.0377 12.9175M67.9802 35.0042C68.4887 35.9981 69.6367 38.2067 70.1598 39.0902C70.8137 40.1945 70.3778 50.1335 70.3778 51.4587C70.3778 52.7839 70.3778 57.3117 71.1406 59.6308M65.0377 12.9175C65.074 13.9482 65.3646 16.2747 66.2365 17.3348M65.0377 12.9175C65.074 12.6598 65.2556 12.1445 65.6916 12.1445C66.1275 12.1445 66.7451 13.5433 66.9993 14.2427C67.2536 15.163 67.8712 17.1582 68.3071 17.7766C68.743 18.395 68.7794 18.3287 68.743 18.2183M68.743 18.2183C68.8884 17.0772 69.288 14.817 69.7239 14.9053M68.743 18.2183C69.3969 19.3963 70.7919 22.0172 71.1406 23.0774C71.5766 24.4026 73.2113 28.3782 73.8652 30.4764C74.955 32.3538 75.064 34.1207 74.628 36.8816C74.1921 39.6424 73.7562 40.4154 73.7562 43.8388C73.4292 47.1519 73.3203 50.7962 73.7562 52.3422M69.7239 14.9053C69.8329 15.4575 70.0508 16.6722 70.2688 17.4453M69.7239 14.9053C69.8329 14.2427 70.1262 13.1384 70.5957 13.1384C70.8137 13.1384 71.3586 14.2427 71.7945 16.1201C72.1578 17.3348 72.9061 19.8306 72.9933 20.0957C73.1023 20.427 74.3011 23.8504 74.4101 24.1817C74.5191 24.513 75.3909 27.053 75.9358 28.8199C76.4807 30.5869 76.6987 31.139 76.6987 32.6851C76.6987 34.2311 75.7179 37.5441 75.7179 37.6546C75.7179 37.765 75.2819 42.0719 75.2819 43.8388C75.2819 45.6058 75.2819 48.5875 74.846 49.6918C74.4973 50.5753 73.9742 51.8269 73.7562 52.3422M73.7562 52.3422C73.7925 53.0784 73.8652 54.6613 73.8652 55.103C73.8652 55.6552 72.9933 56.9804 71.1406 59.6308M71.1406 59.6308C71.1406 60.5143 70.8137 61.8395 70.5957 62.3917C70.3778 62.9438 68.4161 66.6986 67.3263 69.4594C66.7814 71.0055 66.7814 71.7785 66.1275 72.9933C65.4736 74.208 63.294 77.6315 62.5311 79.6193C61.7682 81.6071 61.1143 84.4783 61.1143 86.2453M31.1445 48.0353C30.9628 48.3298 30.6649 49.0955 30.9265 49.8023C31.1881 50.509 32.1253 50.833 32.5612 50.9066M32.5612 49.8023C32.5976 49.5814 32.7356 49.1396 32.9971 49.1396C33.3241 49.1396 33.76 49.4709 33.978 49.6918C34.1959 49.9127 35.5037 51.017 36.3756 51.017C37.2474 51.017 38.7732 50.0231 38.9911 49.8023C39.2091 49.5814 39.4271 49.5814 39.536 49.5814C39.645 49.5814 40.0809 49.5814 40.1899 50.1336M40.4079 51.4587C40.9528 51.3851 42.108 50.9508 42.3695 49.8023C42.3695 49.3605 42.1516 48.6611 42.0426 48.3666M27.875 60.183C27.7297 60.0725 27.4609 59.8075 27.5481 59.6308C27.6353 59.4541 28.3836 59.2627 28.7469 59.1891C29.6551 58.821 31.6066 57.931 32.2343 57.4221C32.7792 56.9804 33.869 57.1276 34.3049 57.3117C34.8498 57.6062 36.2448 58.0185 37.4654 57.3117C38.5552 56.7595 39.536 57.4221 39.645 57.4221C39.754 57.4221 43.7863 60.0726 44.6582 60.6247M30.2726 60.7352C30.9265 60.772 32.4304 60.7793 33.2151 60.5143C34.087 60.3376 34.7409 60.5879 34.9588 60.7352C35.2858 60.9192 36.114 61.2652 36.8115 61.1769C37.6834 61.0664 38.6276 60.4038 38.8821 60.4038C39.1367 60.4038 39.4271 60.2934 40.7348 60.8456C41.3161 61.1033 42.6529 61.5965 43.3504 61.5082C44.0479 61.4198 44.8761 61.1769 45.2031 61.0664M29.0738 61.6186C29.8004 62.6493 31.9291 64.7549 34.6319 64.9316C37.3346 65.1083 39.8267 64.7108 40.7348 64.4899C41.7883 63.9745 43.9389 62.9438 44.1133 62.9438M51.1623 11.3715C47.13 7.72721 41.3155 6.73333 40.9885 6.40203C40.6616 6.07073 37.0652 2.53686 36.4113 0.54906M39.7533 2.71971C39.51 7.31657 29.2736 5.51544 27.2742 6.62289C25.8787 7.39591 23.8052 6.18136 23.9142 4.52486M23.9142 4.52486C24.3501 2.97879 28.2762 1.3221 28.7122 1.43254C29.1481 1.54297 32.5102 1.32207 33.6 3.30986C35.1258 4.96636 35.6485 5.73942 35.6485 6.62289C35.6485 7.50636 39.8283 9.82543 40.2642 11.9237M23.9142 4.52486C23.8052 5.40833 17.5988 11.576 22.2823 21.2001C23.917 22.3044 25.8787 16.341 25.8787 13.6906M40.2642 11.9237C40.7001 14.0219 41.354 19.8749 41.463 21.2001C41.572 22.5253 36.033 30.0143 33.1134 21.2001M40.2642 11.9237C39.8283 13.3593 36.4498 17.114 34.2702 17.114C32.0906 17.114 33.2894 14.3532 32.1996 11.0402C31.1098 7.7272 30.5649 8.61067 29.693 8.0585C28.8212 7.50634 25.8787 11.0402 25.8787 13.6906M40.2642 11.9237C40.8454 10.304 42.1823 7.66095 42.8798 7.39591C43.7516 7.06461 44.9504 7.3959 46.9121 9.60457C47.5733 10.3491 47.5224 12.6746 48.2198 15.2367C48.0745 15.4207 45.1684 15.8772 43.8606 19.3227C42.2259 23.6296 43.55 20.7583 43.332 23.74C43.114 26.7217 45.7133 29.1512 46.9121 26.7217C48.1109 24.2922 47.8929 25.0652 48.2198 23.2983C48.5468 21.5313 53.4509 20.3166 53.342 17.114M33.1134 21.2001C32.2779 22.6357 30.2161 23.1657 31.0008 25.2861M33.1134 21.2001C34.2759 20.7215 35.578 21.2442 36.4498 20.9792C37.5397 20.6479 37.7361 20.3367 37.4928 19.8528C37.2495 19.369 36.4113 18.6431 34.8165 18.6431C33.2217 18.6431 31.6547 19.4331 31.0008 18.4392C30.3469 17.4453 31.8726 16.7827 31.8726 15.2367C31.8726 13.6906 31.6547 13.028 31.0008 13.028C30.3469 13.028 30.3469 13.6906 29.475 15.2367C28.6032 16.7827 28.9301 17.2245 28.7122 18.4392C28.4942 19.654 29.584 18.9914 29.802 20.427C30.0199 21.8627 30.6738 22.8566 29.693 24.0713C28.7122 25.2861 27.8903 25.2861 26.4735 25.2861C25.0568 25.2861 22.9808 24.0713 21.6784 22.4148C20.3759 20.7583 23.699 17.6662 23.1541 17.114C22.6092 16.5619 22.5002 15.2367 22.2823 14.3532C22.0643 13.4697 20.0336 11.8132 19.4887 11.9237C18.9438 12.0341 18.6751 15.4575 19.0021 15.7888C19.329 16.1201 20.7458 17.0036 21.3997 17.7766C22.0535 18.5496 24.5709 13.6906 25.8787 13.6906M28.6736 0.990789C29.8942 0.990789 33.1056 0.990789 34.5586 0.990789C36.8472 0.990789 41.5117 1.07914 41.8604 1.43252C42.2963 1.87426 43.2772 1.32209 45.3478 4.30379C47.0043 6.68915 50.908 8.27937 51.7072 10.488C52.3611 11.5187 53.6035 14.2869 53.342 17.114M53.342 17.114C53.015 20.6479 47.904 18.4392 47.4681 19.7644" stroke="white" stroke-width="0.386815"/>
</svg>
