<svg width="85" height="96" viewBox="0 0 85 96" fill="none" xmlns="http://www.w3.org/2000/svg">
<path d="M0.599609 90.5104C6.07949 82.1294 19.6503 64.0619 30.0943 58.8399C32.2701 61.4993 28.4019 66.5762 35.6547 73.3455C40.7317 83.2576 44.1163 88.3346 44.3581 89.7851C44.5998 91.2357 43.391 86.4005 45.3251 82.7741C47.2592 79.1477 48.2262 80.5983 48.9515 77.6971C49.5317 75.3763 45.0028 71.2502 42.6657 69.4773C38.3141 66.6568 30.2877 60.1454 32.9954 56.6641C38.0723 50.1366 49.6768 48.9278 47.7427 46.5102C44.8416 43.8508 39.6679 37.6618 42.1822 34.1805C44.6965 30.6991 48.5486 33.2134 50.1603 34.9057C51.1273 36.8398 52.868 41.675 52.0944 45.5432C51.1273 50.3783 48.9515 53.5212 58.8636 60.774C69.501 65.6092 76.9956 63.9169 77.7209 60.774C78.4461 57.6311 74.8197 56.9059 74.578 53.763C74.3362 50.6201 78.2044 49.1696 79.8967 49.1696C81.589 49.1696 79.2321 45.7942 77.7209 46.0267C74.578 46.5102 71.9186 51.3454 68.2922 52.5542C67.567 53.0377 66.0681 53.0377 65.8746 49.1696C65.6812 45.3014 61.7647 42.5615 59.8307 41.675C58.3801 40.8691 55.6724 37.5651 56.446 30.7958C57.4131 22.3343 58.8636 14.598 67.0834 13.8727C70.7098 14.598 70.7098 17.2573 67.0834 16.7738C64.9076 17.1767 60.3142 19.0463 59.3471 23.3013C59.734 27.9431 58.3801 32.4881 57.6548 34.1805C57.4131 35.631 56.446 38.3871 54.512 37.8069C52.0944 37.0816 51.6108 30.3123 47.2592 30.7958C42.9075 31.2794 39.7646 32.0046 39.7646 40.2245C39.7646 48.4443 38.7976 51.5871 31.3031 55.6971C32.0283 52.5542 29.369 44.5761 26.9514 39.7409C24.5338 34.9057 22.8415 30.7958 25.9843 26.2024C28.1602 21.609 24.5338 18.4661 29.6107 10.488C30.6584 8.47339 33.8657 4.25066 38.3141 3.47703C43.8745 2.50999 68.2922 -0.874642 71.9186 2.99351M71.9186 2.99351C75.545 6.86166 75.545 9.52102 72.6439 11.6968C70.9516 13.1474 70.4681 10.9716 68.2922 9.52101C66.3582 8.55398 62.2483 10.0045 59.3471 11.2133C56.446 12.4221 53.3032 19.4331 52.8196 20.4002C52.3361 21.3672 50.1603 15.8068 51.1273 13.1474C52.0944 10.488 56.6878 11.4551 57.6548 10.488C58.6219 9.52101 60.3142 2.50999 71.9186 2.99351ZM71.9186 2.99351C74.6586 3.47703 80.1868 5.45946 80.3802 9.52101C80.622 14.598 76.7538 15.8068 74.3362 16.0485C73.5626 15.8551 72.5633 15.6456 72.1604 15.565C73.5304 15.9679 76.367 17.5474 76.7538 20.6419C77.2373 24.5101 77.4791 25.9607 78.6879 27.8947C79.5241 29.2326 79.2034 31.3803 78.4461 32.2571M76.2703 36.3563C75.9248 36.4715 75.4696 36.4769 75.0615 36.3988M75.0615 36.3988C74.6128 36.3129 74.2211 36.126 74.0945 35.8728C73.8527 35.3893 73.3692 32.0046 75.3033 31.5211C74.578 30.5541 68.2922 32.0046 66.5999 32.4882C67.8087 31.7629 69.7428 30.0706 72.6439 29.587C75.545 29.1035 77.9626 30.0706 77.7209 30.7958C77.4791 31.5211 76.7538 31.5211 77.2373 32.4882C77.6845 32.7863 78.1087 32.6479 78.4461 32.2571M75.0615 36.3988C74.9809 36.8681 74.4813 37.7102 73.1274 37.3233C71.4351 36.8398 68.0505 34.9058 67.567 35.1475C67.0834 35.3893 69.0175 33.9387 72.1604 36.1145C73.885 37.0816 74.813 36.707 75.0615 36.3988ZM75.0615 36.3988C74.6586 35.5788 74.1428 33.697 75.3033 32.7299C76.5121 33.697 78.6879 33.2349 78.4461 32.2571M78.4461 32.2571C78.4461 33.3012 79.4132 36.453 83.2813 40.708C85.4572 44.0926 84.0445 44.6344 82.556 45.0596C80.8637 45.5432 79.8967 44.5761 80.622 47.719C80.9443 47.9608 81.589 48.6377 81.589 49.4113C81.589 50.3784 78.2044 51.3454 76.7538 51.5871C77.4791 52.3124 80.3802 51.5871 79.8967 53.5212C79.4132 55.4553 77.4791 54.4883 78.4461 56.4223C79.4132 58.3564 81.1055 59.5652 80.1385 61.4993C79.1714 63.4334 78.6879 63.9169 77.4791 64.6422C76.2703 65.3674 65.8746 64.8839 63.4571 63.9169C61.0395 62.9498 59.1054 66.5762 59.1054 66.818C59.1054 67.0597 54.0284 71.4114 53.3032 72.3785C51.6713 74.5543 53.7867 77.9389 53.3032 80.1148C54.512 77.6972 57.123 72.6202 57.8966 71.6532C58.8636 70.4444 58.3801 78.1807 58.3801 78.6642C58.3801 79.1477 60.5559 86.6423 62.0065 89.0599C63.4571 91.4774 67.0834 95.8291 74.578 94.8621" stroke="white" stroke-width="0.483519" stroke-linecap="round"/>
</svg>
