<svg width="95" height="91" viewBox="0 0 95 91" fill="none" xmlns="http://www.w3.org/2000/svg">
<path d="M45.7145 27.3532C47.3031 30.6104 49.5494 34.4899 46.3096 35.3239C45.0137 35.7409 43.0366 35.3732 42.1194 36.4482C40.5727 38.2611 42.1194 40.6181 42.1194 41.2436M42.1194 41.2436C42.1194 41.8691 40.3915 43.954 37.1517 43.954C34.5599 43.954 33.336 43.537 33.048 43.3286M42.1194 41.2436C37.6807 39.6358 34.2719 42.4946 33.048 43.3286M33.048 43.3286C34.3439 44.788 39.9598 47.4984 40.1758 49.7919M33.048 43.3286C35.2078 44.8923 34.5599 47.2899 37.1517 48.9579C37.5119 49.3749 38.6209 50.1255 40.1758 49.7919M40.1758 49.7919C39.8159 50.9038 39.2257 53.5865 39.7438 55.4212C40.3915 57.7147 39.3116 61.0506 35.2078 61.0506C33.6737 61.0506 30.7207 60.5843 27.4323 59.8044M27.4323 59.8044C21.9248 58.498 15.4763 56.3116 13.1773 53.9618C9.50549 50.2089 2.80992 48.3324 1.08203 36.0313C1.514 25.1896 4.32182 21.4367 12.0973 29.3594C19.8728 37.2822 28.7283 40.9721 32.184 39.3041C35.6398 37.6362 34.3457 32.0261 30.2419 28.6902C26.1382 25.3543 21.1705 17.4945 17.9307 15.4096C14.6909 13.3246 15.9851 9.96949 14.4732 10.8035C12.9613 11.6374 10.5854 26.232 12.7453 35.6143C16.1531 50.4174 22.6806 53.5543 27.4323 59.8044ZM27.4323 59.8044C27.7923 60.3588 27.0309 60.5513 21.1687 61.0506C13.8252 61.6761 14.9051 69.5989 15.9851 70.4328C19.0089 74.8112 23.8902 71.749 33.9119 77.9204C38.8796 81.7428 51.6228 85.79 48.167 89.9599C45.1432 90.7939 57.6704 78.3374 58.1024 77.9204C58.5343 77.5034 65.7728 70.4064 69.1177 64.8035C76.4612 52.5023 63.718 49.3749 60.0462 42.7031C59.5423 41.1046 60.9888 37.0496 69.1177 39.7842C83.3727 44.5795 83.1568 39.7842 92.0122 24.5641C93.7401 21.2282 95.8567 12.5965 90.5003 4.75714C83.8047 -5.04209 80.639 5.30507 80.5649 5.59112C79.701 8.92701 71.4935 11.8459 70.1976 13.9309C69.4776 14.9039 69.3336 18.476 74.5173 24.9811C79.701 31.4861 77.6851 40.8961 76.0292 44.788C73.2214 50.4173 58.9663 52.0853 57.4544 44.9965C57.6704 37.9077 52.4867 39.1587 53.7826 34.7803C53.6387 36.2397 54.301 38.6166 58.1024 36.4482C62.8541 33.7378 64.7979 32.0699 61.5581 31.4444C58.3184 30.8189 51.1908 32.0699 52.4867 33.1123C53.7826 34.1548 61.1262 31.6529 63.934 30.6104C66.7418 29.5679 66.7418 27.6915 64.7979 25.8151C62.8541 23.9386 51.1908 14.7648 52.0548 9.55249C52.0548 7.38415 52.0386 7.11277 51.8946 6.69578C54.1985 6.2093 58.2752 4.63203 61.5581 0.795739C61.5581 0.170256 54.2146 5.38264 50.5429 4.75714C41.3863 3.0471 48.9876 -1.16161 48.69 2.48694C48.5599 4.08299 47.2326 4.91598 45.7145 5.31352M41.1687 19.2169C40.7705 18.3136 40.4311 17.4967 40.1758 16.8498C40.1758 17.5448 39.7006 19.1849 37.7997 20.1857C35.5873 20.4468 33.7215 20.2846 32.184 19.8945C29.1587 19.1267 27.405 17.4764 26.7844 16.4328C27.8643 15.7378 30.6721 14.2645 33.264 13.9309C36.5038 13.9309 35.8558 18.3093 35.8558 16.8498C35.8558 15.3903 36.9357 14.3479 37.1517 13.7224C37.3677 13.0969 41.6874 9.55249 37.7997 8.71852C30.5425 7.38417 27.0004 10.6645 26.1364 12.4714C26.1364 11.9154 26.6548 10.7201 28.7283 10.3865C31.3201 9.96947 35.8558 10.8035 38.2316 12.4714C40.6075 14.1394 47.5717 10.5259 45.7145 5.31352M41.1687 19.2169C38.4129 27.4488 44.686 27.8796 48.167 27.066C48.023 26.9965 47.4759 26.7741 46.4394 26.4405C44.3661 24.6058 47.1779 23.9948 49.6975 24.0643C51.6414 24.2728 55.6129 23.3134 53.1533 19.8945C51.368 17.4128 48.9402 17.6448 47.4998 18.7396C40.9537 23.7149 46.1465 13.4895 45.7145 10.7791C46.0121 10.1206 46.4286 8.10547 45.7145 5.31352M41.1687 19.2169C42.1335 16.4819 47.2694 9.65021 45.7145 5.31352M45.7145 5.31352C46.6622 5.39575 44.4563 5.64299 45.7145 5.31352Z" stroke="white" stroke-width="0.483519" stroke-linecap="round"/>
</svg>
