<svg width="75" height="98" viewBox="0 0 75 98" fill="none" xmlns="http://www.w3.org/2000/svg">
<path d="M4.65924 50.8816C3.91504 52.0671 5.65151 64.9891 9.99269 66.0561C14.3339 67.1231 11.6051 67.0045 22.8922 66.5303C34.1792 66.0561 44.598 64.0407 48.071 60.3656C51.5439 56.6906 53.9006 51.4743 55.637 44.5983C57.8696 34.8772 60.4743 29.1867 63.8232 28.4754C69.7769 28.5939 70.273 31.2021 70.521 33.336C70.7195 35.0431 68.95 39.3426 68.0404 41.2789C67.3789 43.6894 65.2372 48.6291 61.9627 49.1033C57.8696 49.696 56.5053 48.392 55.637 47.9178C54.9424 47.5384 55.3476 46.179 55.637 45.5468C56.712 44.9935 58.8867 43.2706 58.9859 40.8047C59.11 37.7224 60.2263 37.9595 60.4743 37.2482C60.7224 36.5369 63.8232 35.1142 66.0558 37.2482C68.2884 39.3821 66.552 43.0572 64.8155 43.0572C63.079 43.0572 61.9627 43.6499 61.3426 43.887C60.7224 44.1241 58.2417 47.6807 56.5053 54.3195C54.7688 60.9584 55.513 68.9957 58.9859 72.9079C62.4589 76.8201 66.1799 80.5364 68.0404 84.9228C68.8646 86.7512 70.0184 90.8258 68.0404 92.4974C65.5679 94.587 36.9965 97.4601 23.535 96.9377C10.0735 96.4153 15.0186 84.9228 21.0625 85.9676C25.8977 86.8034 26.8317 91.975 25.477 92.4974C24.2802 92.9327 21.7219 93.1243 21.0625 90.4079C20.2383 87.0124 31.502 86.2288 34.7987 87.0124M4.65924 50.8816C5.40344 49.696 6.51975 45.5468 10.985 45.5468C11.4811 45.5468 12.3493 46.021 12.7214 46.021C13.0935 46.021 14.3339 45.3096 14.706 45.3096C15.0781 45.3096 19.6673 47.0879 23.8844 52.1856C23.0162 52.6598 18.551 48.7476 11.9772 48.8662C9.59578 48.8662 8.58698 50.0517 8.38025 50.6444C12.1426 50.7235 19.7665 51.1898 20.1634 52.4227C20.6596 53.9639 17.0626 54.9123 14.2098 55.1494C11.3571 55.3865 7.76008 53.9639 4.65924 50.8816ZM4.65924 50.8816C3.08815 48.0363 0.0700067 41.3263 0.566141 37.2482C1.18631 32.1505 2.30257 31.6763 3.41888 27.4084C3.41888 24.089 1.68241 20.651 2.05451 18.8728C2.42661 17.0945 2.92274 16.3832 4.78324 16.2646C6.64375 16.1461 11.233 16.2646 12.9695 17.5687C14.7059 18.8728 15.4501 19.584 15.6982 24.4446C15.6982 26.8157 15.5328 26.9342 15.4501 26.6971C15.2021 26.2624 14.2594 25.2034 12.4733 24.4446C10.2407 23.4962 3.29484 24.2075 1.55837 24.089C1.06224 24.089 0.814172 25.1559 2.67467 26.6971C4.53518 28.2383 8.48412 28.831 8.87635 28.831C9.74459 28.831 11.4811 29.0682 14.2098 27.4084C15.5742 27.527 14.4579 30.6093 12.9695 31.6762C11.4811 32.7432 9.99265 34.64 9.24845 35.5884C8.59728 36.4183 8.50425 40.0934 10.7369 41.516C11.1338 41.516 11.233 40.4885 11.233 39.9748C11.6051 40.5676 12.9447 41.682 15.3261 41.3974C15.9215 41.2078 15.6569 40.6071 15.4501 40.3305C15.1607 40.2119 14.6563 39.9274 14.954 39.7377C15.3261 39.5006 15.8222 39.145 16.9385 39.2635C18.0548 39.3821 19.0471 40.3305 19.0471 41.516C19.0471 42.7015 19.9153 42.7015 20.5355 42.5829C21.1557 42.4644 22.1479 42.3458 22.52 40.8047C22.8177 39.5717 20.9076 37.0506 19.9153 35.9441M55.761 11.8782C56.5052 8.95395 58.9611 3.10543 62.8309 3.10543C67.1721 3.34253 69.0326 7.01761 70.521 9.27008C72.0094 11.5226 73.994 12.7081 74.242 12.9452C74.4901 13.1823 75.4824 14.2492 70.521 19.3469C65.5597 24.4446 59.1099 26.8157 56.2572 27.2899C53.4044 27.7641 48.195 29.3052 41.6212 26.1043M41.6212 26.1043C35.0474 22.9035 33.435 22.4293 32.0706 14.1307C32.6908 8.79588 32.6908 3.34253 35.9157 0.734403C39.8847 -1.28113 42.7375 4.29094 45.7143 4.64659C49.0632 4.64659 52.4865 3.36608 55.761 1.5641C56.0918 1.36652 57.0262 1.11361 58.1177 1.68265C59.482 2.39396 60.2262 5.35774 60.4743 5.95049C60.7224 6.54325 61.9627 9.74413 62.0867 10.3369C62.2108 10.9296 62.8309 12.3523 61.2185 13.5378C59.6061 14.7233 58.2417 15.6717 52.9083 18.0427C49.1376 19.9395 46.5412 22.3896 45.7143 23.3775C44.9701 24.0494 43.1096 25.5354 41.6212 26.1043ZM41.6212 26.1043C41.4972 26.381 40.9762 27.0292 39.8847 27.4084M41.6212 26.1043C41.7452 25.8277 42.2662 24.5393 43.3577 21.5992M41.6212 26.1043C54.5207 24.8003 61.2185 20.0581 61.2185 19.3469C61.2185 18.6358 66.8 12.9452 63.079 10.0998C58.8123 8.20296 48.1536 16.9757 43.3577 21.5992M41.6212 26.1043C40.9266 28.3807 36.4258 32.9012 34.2622 34.877M39.8847 27.4084C38.1483 27.4084 29.3419 25.0372 26.9852 23.7332C23.6363 21.125 28.5977 20.1766 25.993 16.8572C23.3883 13.5378 21.5278 8.67701 22.0239 6.6618C22.4208 5.04963 28.1429 6.7804 30.9543 7.84731C33.8898 8.67717 40.1328 10.7637 41.6212 12.4708C43.4817 14.6047 44.3499 16.7491 43.3577 21.5992M39.8847 27.4084C39.3059 28.2777 37.801 30.3957 36.4118 31.9132C35.8518 32.5249 35.0853 33.6176 34.2622 34.877M34.2622 34.877C32.5332 37.5225 30.5543 40.9038 29.714 42.1086C28.4737 43.8869 27.9775 47.5619 28.8458 48.9846C29.714 50.4072 34.0374 53.0089 34.7994 54.3195C35.4195 55.3863 36.0397 55.8605 35.7916 58.3501C35.6263 58.7057 34.7746 58.9903 32.6908 57.2831C30.607 55.576 31.0784 51.1975 31.5745 49.2217C31.5472 45.8232 32.0465 38.1964 34.2622 34.877Z" stroke="white" stroke-width="0.483519"/>
</svg>
