<svg width="83" height="65" viewBox="0 0 83 65" fill="none" xmlns="http://www.w3.org/2000/svg">
<circle cx="42" cy="32.5" r="32" fill="#515F51"/>
<path d="M1 45.3246C3.57752 43.6147 11.0288 39.4299 16.0233 43.3704C18.5 45.3246 20.5 47.5 24.5 47C30.6383 46.2327 39.3023 46.2672 46.593 39.9163C53.8837 33.5655 55.7435 27.249 54.4179 21.6309C51.9876 15.28 44.9179 16.5014 40.7202 23.585C40.1311 25.6206 39.3504 29.7405 40.9411 29.9359C42.4876 29.2031 40.4993 22.1194 39.8365 21.3866C39.1737 20.6538 37.4062 18.2112 34.0923 19.1883C31.4411 19.9699 31.1899 25.8648 32 28.7146C33.6446 34.5 39.7841 43.3344 43.7093 45.3246C48 47.5 50.6039 49.9312 58.9993 47C67.3946 44.0688 68.3016 42.7328 72.4993 42C75.8574 41.4138 79.7745 46.3016 82.4993 48.5" stroke="white"/>
</svg>
