<svg width="84" height="82" viewBox="0 0 84 82" fill="none" xmlns="http://www.w3.org/2000/svg">
<circle cx="42" cy="40.5" r="32" fill="#515F51"/>
<path d="M44.8936 20.4403C43.8234 16.8508 43.7297 7.93752 51.9173 1C53.021 1.38118 48.5058 11.2919 49.0075 17.4861C49.5092 23.6803 49.5092 30.8275 53.1214 35.3064C56.7335 39.7853 61.349 47.5995 72.6872 50.0772C69.5767 46.2654 72.2225 43.2042 74.8946 42.3583C76.0987 41.9771 66.8676 37.6888 59.844 39.3088C57.9376 39.7535 53.1816 40.6239 49.4089 40.5476C44.693 40.4524 39.3751 33.877 38.7731 32.5428C38.1711 31.2087 36.365 28.731 32.1508 29.5887C33.9569 28.3498 34.0572 27.2063 34.6592 25.5862C35.2613 23.9662 36.9315 22.1602 39.1744 21.8697C41.3819 21.5838 43.7468 24.538 47.4021 28.0639C48.9072 28.6992 53.0379 29.6545 55.2285 26.6345C58.3389 22.3462 82.0186 14.532 82.8213 15.8661C83.7243 16.9144 81.0955 21.1074 77.4031 24.9192C74.8946 27.778 67.6503 31.5517 57.5362 32.924M30.7461 55.1279C32.1843 54.1749 35.3616 51.8497 36.5657 50.1725C38.0707 48.076 43.489 48.8384 44.4923 50.649C45.6964 51.7925 47.469 54.1114 48.2048 55.1279C47.6028 54.842 45.7566 54.4036 43.1879 54.9373C39.9771 55.6043 36.2646 61.9891 34.4586 63.7045C32.6525 65.4198 30.9468 66.9445 24.3245 68.2786C17.7022 69.6128 15.3944 75.7117 14.5917 77.6176C14.3911 79.1423 14.2907 79.1423 14.5917 80C15.4948 78.7612 18.7056 76.2835 21.3144 77.1411C23.0803 77.9035 23.388 79.2376 23.3211 79.8094C24.6255 76.2199 27.1339 68.3358 26.7326 65.5151C26.7326 61.8938 25.6289 52.7455 24.8262 49.9819C24.0235 47.2183 22.8473 40.1268 24.2242 38.1653C24.8262 37.3076 32.5522 44.8359 32.3515 49.696C32.7528 51.2525 31.9702 53.7747 25.6289 51.4113C17.7022 48.4572 7.56811 43.1206 1.24684 42.8347C-0.157881 43.3112 4.65832 49.3148 9.97622 53.4125C14.2305 56.6907 20.6454 57.7008 23.3211 57.7961" stroke="white"/>
</svg>
