<svg width="83" height="65" viewBox="0 0 83 65" fill="none" xmlns="http://www.w3.org/2000/svg">
<circle cx="42" cy="32.5" r="32" fill="#515F51"/>
<path d="M23.428 51.7216C23.9663 52.7382 25.1937 54.1127 25.7967 51.4776C27.9501 44.5238 30.4265 49.5256 32.9028 46.9637C34.5897 46.5978 36.3802 44.6458 37.5 41.23C38.6198 37.8141 39.7847 37.6747 40 38C40.4307 38.6506 40.8829 39.5639 37.9543 39.5639C35.6932 38.1 31.9338 36.8381 28.0577 37.9361C24.1816 39.034 13.5224 39.4 7.9236 41.9619C4.56432 43.0355 2.0018 42.9785 1.14045 42.8159C0.996887 42.5312 0.838972 41.4495 1.35578 39.4C2.0018 36.8381 4.04754 28.0544 4.26288 25.4925C4.47822 22.9306 6.09326 18.9048 6.73927 19.6367C7.70829 19.2707 8.24664 20.7347 7.27762 25.1265C6.30859 29.5183 4.15521 38.79 4.69356 39.644C5.2319 40.4979 8.24664 37.814 9.86168 33.6662M9.86168 33.6662C11.1537 30.3479 12.7687 23.6626 13.4148 20.7347C13.7378 19.596 14.1469 17.0504 13.1994 15.9768C12.7371 15.4529 12.2388 15.818 11.7997 16.4994M9.86168 33.6662C10.2206 31.8363 11.1537 27.054 12.0151 22.5646C12.8764 18.0752 12.2304 16.6505 11.7997 16.4994M9.86168 33.6662C9.53867 34.7641 8.89265 37.0576 8.89265 37.4481C8.89265 37.9361 8.35431 39.156 9.53867 38.79C10.723 38.424 18.2599 35.8621 20.7363 36.1061C23.428 35.7401 32.1569 35.8232 37.2119 36.6599C40.5 37.2041 40.738 34 40.119 33C39.5 32 38.5652 31.3904 34 31C29.4348 30.6096 19.1058 32.0573 14.5119 32.8299C13.5788 32.9519 12.2735 33.0562 12.4457 31.1043C12.618 29.1524 14.312 20.206 15.1375 15.9768C15.3169 15.4075 15.9342 14.3177 16.9678 14.5129C18.2599 14.7569 26.1197 14.5129 26.2274 14.2689C26.3351 14.0249 32.4722 12.683 35.7023 12.073C38.9323 11.463 41.8394 14.7569 42.8084 18.9048C43.7775 23.0526 44.3158 28.7864 43.5621 31.9583C42.8084 35.1302 41.4087 28.4204 41.6241 25.9805C41.8394 23.5406 42.1124 17.7414 43.9928 15.6109C45.1772 14.2689 53.7907 13.5369 55.6211 13.7809C57.6668 14.6756 62.3827 16.3916 64.8806 16.0989C68.003 15.7329 71.1254 14.7569 71.6638 17.5628C72.2021 20.3687 73.6018 31.2263 73.8171 31.7143C74.0325 32.2023 74.8938 36.8381 76.5089 37.9361C78.1239 39.034 79.5236 40.376 79.9543 38.424C80.2988 36.8625 78.6623 28.7457 77.8009 24.8825C77.4061 23.6626 76.4658 21.0031 75.8629 20.1247C75.1092 19.0267 73.4941 18.1728 72.3098 18.0508C71.1254 17.9288 73.8171 21.1007 76.9396 21.3447C79.3083 22.1986 80.2773 25.6145 80.8156 29.7624C81.354 33.9102 82 41.3519 82 42.8159C82 44.2798 81.2463 43.7918 79.9543 43.5478C78.6623 43.3039 66.3141 38.912 60.5 37.9361C54.6859 36.9601 49.5178 38.6681 44.7803 41.23C43.1653 41.3519 43.2391 40.01 43.5621 37.9361C43.8851 35.8622 44.6388 33.5442 48.1919 32.2023C51.745 30.8603 56.6978 31.5923 60.1432 31.9583C63.5886 32.3243 71.9868 33.0562 74.3555 37.9361C75.0015 39.278 71.5561 38.18 67.357 37.2041C63.1579 36.2281 58.9588 35.6181 53.2523 36.1061C49.0317 36.6917 45.9308 38.79 45.9308 38.668C45.8232 38.668 45.5863 34.9594 45.9308 30.8603C46.0385 28.8677 47.1555 25.1591 47.5 23.5M11.7997 16.4994C11.339 17.2142 10.9435 18.2772 10.723 19.0267C10.2924 19.8807 8.92854 20.9787 8.67731 20.1247C8.35431 19.0267 11.4767 16.0459 11.7997 16.4994Z" stroke="white"/>
</svg>
