<svg width="83" height="86" viewBox="0 0 83 86" fill="none" xmlns="http://www.w3.org/2000/svg">
<circle cx="42" cy="43" r="32" fill="#515F51"/>
<path d="M81.6758 79.2146C81.3821 78.8257 80.9711 77.9182 81.6758 77.3997C82.263 77.7108 81.9204 78.7392 81.6758 79.2146ZM81.6758 79.2146C81.6052 79.8584 81.338 80.8894 80.7666 81.9364M40.1293 77.5293C40.4816 78.1515 49.0845 80.6406 53.3419 81.8073L66.261 85.0482C69.1482 85.1347 75.4805 85.2297 77.712 84.9186C79.1761 84.2183 80.149 83.068 80.7666 81.9364M40.1293 77.5293C39.2484 78.3071 26.1826 82.4555 23.8337 82.974C21.4847 83.4926 17.6677 85.6964 11.5018 85.0482C11.1157 84.8534 11.211 84.5556 11.5018 84.2543M40.1293 77.5293C41.5973 76.6224 48.791 72.9914 50.6995 72.8617C51.1358 72.6691 51.9872 72.1787 53.0377 71.5654M12.8231 83.363C12.4079 83.5692 11.8302 83.914 11.5018 84.2543M11.5018 84.2543C11.1103 84.4325 9.94564 84.8927 8.41884 85.3075C6.51034 85.8261 4.60185 85.3075 2.69335 83.6222C0.784857 81.9369 0.931664 81.0295 1.07847 77.9182C2.25302 75.7144 3.73556 75.3255 4.97619 77.9182C5.62959 79.2146 7.53809 78.4368 7.53809 77.0108C7.53809 75.87 5.99661 74.8069 5.92321 74.418C5.82534 73.8995 5.95257 72.7587 7.24447 72.3438C8.27213 71.8685 11.1789 70.8141 14.5848 70.3993M14.5848 70.3993C14.8785 70.2696 13.8508 69.1029 19.7231 65.862C21.8371 65.862 23.5401 65.862 24.1273 65.862C24.9103 66.2941 26.7699 67.3398 27.9443 68.0658C29.4124 68.9733 34.4038 67.6769 34.6975 67.6769C34.9911 67.6769 37.9272 67.1583 38.9549 69.4918M14.5848 70.3993C14.9151 70.2978 15.2594 70.2026 15.6125 70.1143M38.9549 69.4918C37.7804 70.0104 31.6145 70.7882 31.0273 70.7882M38.9549 69.4918C40.1293 69.4486 42.8599 69.2585 44.3867 68.8436C45.9135 68.4288 47.6654 68.8436 48.3505 69.1029C46.8335 69.4054 43.7408 69.6733 43.5059 68.3251C43.2123 66.6398 45.708 64.5656 47.3229 64.5656C48.9378 64.5656 52.3153 65.8227 53.342 65.862C56.7186 65.991 58.4802 63.1396 61.5632 63.2692C62.5909 63.2258 64.9985 63.3982 66.4078 64.4353C68.1695 65.7317 69.1972 66.1206 68.3163 67.6763M31.0273 70.7882C30.44 70.7882 30.44 69.7511 23.5401 70.0104M31.0273 70.7882C33.6698 71.1771 35.4315 71.8253 34.6975 72.3438C31.5264 72.0327 26.1337 75.6712 23.8337 77.5293C21.3379 79.0417 15.6419 81.1851 12.8232 77.659C10.0045 74.1328 18.7933 71.0907 23.5401 70.0104M23.5401 70.0104C23.044 69.3095 20.6708 69.2599 18.1419 69.6214M15.6125 70.1143C16.4299 69.9099 17.2947 69.7426 18.1419 69.6214M15.6125 70.1143C16.0754 69.2586 17.2293 67.9621 18.1419 69.6214M68.3163 67.6763C67.1419 66.1206 66.3589 66.8552 66.1142 67.417C66.1242 67.4332 66.1349 67.4496 66.1461 67.4663M68.3163 67.6763C67.9159 68.0299 67.5449 68.1466 67.2226 68.1292M66.1461 67.4663C66.0866 67.137 64.9691 66.6761 60.976 67.4663M66.1461 67.4663C66.3406 67.7537 66.7232 68.1024 67.2226 68.1292M60.976 67.4663C61.4702 67.579 63.4115 67.8694 67.2226 68.1292M60.976 67.4663C59.1189 67.9783 55.5216 70.1153 53.0377 71.5654M67.2226 68.1292C71.0127 69.2314 79.0333 72.2913 80.795 75.7138C78.7397 75.4545 75.8035 78.1769 75.6567 79.6029C75.5099 81.0289 78.6829 83.2327 80.7666 81.9364M53.0377 71.5654C55.1944 71.2629 59.991 71.0657 62.2972 72.0839C64.9398 73.2507 66.261 73.2507 67.5823 75.7138C67.2226 75.4545 60.2206 71.3061 53.0377 71.5654ZM30.7128 36.6929C31.6359 33.537 32.925 29.0538 33.6698 26.4516C31.8592 26.4516 27.7094 26.4516 25.5954 26.4516C23.4814 26.2442 21.3869 27.8344 20.6039 28.6554C19.1359 31.1185 19.8699 32.026 21.338 36.6929C22.9023 41.6658 25.0082 43.3044 25.7422 44.4712C26.4762 45.6379 29.5592 47.9714 33.3762 47.7121C35.96 48.9566 36.9974 48.1442 37.1932 47.5825C37.34 47.4528 37.0464 46.6749 36.6059 46.8045C36.1655 46.9342 33.8166 46.1563 34.8443 45.3785C36.6059 44.4711 36.1655 45.6378 37.1932 45.7674C38.0153 45.8711 38.3187 42.9586 38.3676 41.4894C38.5634 38.4645 38.9549 32.1037 38.9549 30.8591C38.9549 29.3035 39.6889 23.4698 39.6889 21.6549C39.9238 20.203 39.0038 20.0128 38.5144 20.0993C39.3366 20.0993 39.9336 19.7536 40.1293 19.5807M30.7128 36.6929C30.241 38.3061 29.8649 39.5724 29.706 40.0635L30.7128 36.6929ZM30.7128 36.6929C30.7687 35.6126 30.4107 32.9594 28.5315 30.9889M33.8166 26.4516C34.3549 23.4267 35.5196 16.8584 35.8719 14.7842C36.3123 12.1915 36.8996 5.45036 37.4868 5.96891C37.9272 5.45033 37.4868 2.07976 38.2208 2.72795C38.2208 2.07973 37.9272 0.523963 38.6613 0.523993C38.9159 0.467784 39.2685 0.537894 39.3953 0.912902M40.1293 19.5807C40.2468 18.751 40.2761 9.70416 39.6889 8.66715C39.4589 6.53495 39.5421 2.33891 39.3953 0.912902M40.1293 19.5807C41.3038 19.84 41.0102 20.8771 40.8634 25.0255C40.6676 26.7972 40.2273 30.6002 40.5697 31.5073C41.0102 32.6741 41.5974 39.6745 41.5974 41.8783C41.5485 42.2672 41.7736 43.071 43.0655 43.1747C44.974 43.5636 43.9463 45.1192 43.5059 45.2489C42.7719 45.4649 42.1846 43.6932 41.157 45.3785C40.9198 45.7674 41.4506 47.8935 43.7995 48.1009C44.6804 48.3602 51.5216 44.86 55.3973 40.193C57.159 38.162 60.6236 33.426 60.3887 30.7295C60.0951 27.3589 58.7739 26.97 53.9292 25.6737C50.8463 25.6737 47.3229 25.544 46.8825 25.2847M46.8825 25.2847C46.2952 25.9329 48.3505 33.5814 48.6442 35.1372C48.879 36.3818 48.6442 37.4707 48.4973 37.8596C48.3016 36.5785 48.9671 33.333 53.1952 30.5999M46.8825 25.2847C46.8335 23.6427 46.0699 23.5754 45.6294 22.0198C45.3446 21.0137 44.8135 18.001 44.1614 15.2787C43.6231 13.0316 42.6544 5.3206 41.5974 5.83915C41.4506 5.45024 41.0102 1.95022 40.5697 2.72795C40.7166 2.07967 40.5697 0.524021 40.1293 0.524021C39.5421 0.394448 39.3681 0.827286 39.3953 0.912902" stroke="white"/>
</svg>
